<svg width="241" height="159" viewBox="0 0 241 159" fill="none" xmlns="http://www.w3.org/2000/svg">
<g clip-path="url(#clip0_32_57)">
<path d="M238.358 66.4309L213.892 66.4441L213.13 67.2323L212.83 66.4572H188.213L187.613 67.3505L187.382 66.4572L162.545 66.4769L162.115 67.5345L161.954 66.4769L136.887 66.49L136.657 68.2308L136.587 66.49L111.369 66.5229L111.269 68.1125L111.019 66.5229L86.0318 66.536L85.8715 67.5673L85.4309 66.536H73.383L72.4116 70.9371L71.8607 70.0306L71.6104 70.0175L69.5072 66.536L57.5996 66.5491L57.3692 67.4031L56.7483 66.5491H44.9808L44.6804 67.3374L43.9794 66.5491L32.312 66.5689L30.95 70.0043H27.7853L27.1844 71.502L21.6763 66.5689L10.3194 66.582L0.60498 86.3605L10.9203 92.6271H22.177L23.9596 88.2261L24.8309 88.8632H27.8354L32.8428 92.6271H44.4L44.6303 91.9177L45.4415 92.6271H57.0988L57.2991 91.8586L58.0402 92.6271H69.8077L70.709 88.4954L73.7335 92.6337H85.6312L85.7714 91.6747L86.2721 92.6271H111.059L111.159 91.1295L111.429 92.6271H136.417L136.647 90.985L136.747 92.6271H148.995L149.396 91.4776L149.496 92.6271H161.614L162.125 91.6287L162.265 92.6271H174.243L174.864 91.7535L175.044 92.6271H186.911L187.623 91.8258L187.833 92.6271H199.6L206.41 86.2752L206.09 85.257H209.846L215.203 80.3961L219.77 92.614H231.307L240.952 86.3146L240.771 85.835L240.03 84.1666L239.329 82.6361L236.866 77.3416C236.525 76.5862 236.155 75.8111 235.834 75.0688L235.784 74.9506L240.631 71.121L238.358 66.4309ZM215.073 67.5345H237.106L238.678 70.7729H232.289L232.329 70.878C232.589 71.594 232.89 72.3231 233.18 73.0457C233.481 73.7879 233.831 74.5302 234.152 75.2987L235.213 77.6109C235.584 78.3992 235.954 79.1743 236.305 79.9626L236.966 81.4011C237.196 81.8806 237.426 82.3864 237.667 82.866L238.358 84.3636L239.019 85.8613H229.034L222.755 70.7729H216.345L215.073 67.5345ZM211.518 67.5476L212.74 70.786H199.771L200.952 74.4645H214.102L215.464 78.097H202.104L204.568 85.8613L194.603 85.881L189.495 67.5673L211.518 67.5476ZM185.95 67.5673L190.767 85.881H180.802L179.51 79.9757H175.775L176.997 85.881H167.022L163.957 67.5804L185.95 67.5673ZM160.422 67.5804L161.464 74.3594H158.189L158.489 76.4023H161.764L163.216 85.881H153.272L152.37 78.1562L148.685 78.097L149.446 85.881H139.501L138.46 67.5936L160.422 67.5804ZM134.924 67.5936L135.065 70.832H122.326L122.025 82.1303H135.545L135.715 85.8942H112.04L112.982 67.6133L134.924 67.5936ZM109.457 67.6133L109.246 70.8517H96.3471L95.9264 74.5893L108.996 74.6025L108.766 78.1299L95.4457 78.143L95.0051 82.0974L108.485 82.1237L108.235 85.8942H84.5996L87.534 67.6264L109.457 67.6133ZM84.0188 67.6264L80.794 85.8876H70.8793L72.1211 80.0808L68.8362 80.0151L69.6675 76.2512L66.0621 76.2052L63.7186 85.9073H53.7839L58.9716 67.6461H68.1552L67.354 71.0159L70.5087 71.0816L69.7476 74.6025L73.3029 74.6353L74.8051 67.6396L84.0188 67.6264ZM33.604 67.6527H42.7876L36.298 85.9139H26.4033L29.3777 78.1627H25.8024L24.2601 81.9266H17.8506L19.4329 78.1627H15.8276L12.3224 85.9139H2.60795L11.5412 67.6724H20.5446L19.0624 70.9831L22.207 71.0619L20.6347 74.6484H27.6051L29.0572 71.1013H32.2419L33.604 67.6527ZM55.4564 67.6855L49.9883 85.9533H40.0836L46.2728 67.7053L55.4564 67.6855ZM177.317 70.4576L177.718 72.5924L174.293 72.5727L173.862 70.4707H169.636L170.077 72.7829H173.952L174.133 73.6368H172.2L172.911 77.2234H175.244L175.054 76.0082L178.519 75.995L178.819 77.2234H181.193L180.362 73.6631H178.429L178.269 72.8026L182.235 72.7829L181.684 70.4576H177.317ZM147.994 70.8188L148.354 74.5893H152L151.569 70.8188H147.994ZM136.016 77.4205L136.196 81.0201L124.018 81.007L124.128 78.3138H135.916L136.016 77.4205Z" fill="black"/>
</g>
<defs>
<clipPath id="clip0_32_57">
<rect width="240.357" height="157.65" fill="white" transform="translate(0.60498 0.703857)"/>
</clipPath>
</defs>
</svg>
