<svg width="36" height="25" viewBox="0 0 36 25" fill="none" xmlns="http://www.w3.org/2000/svg">
<path d="M17.6222 8.00781C16.3763 8.00781 15.1584 8.27127 14.1224 8.76488C13.0865 9.25849 12.2791 9.96007 11.8023 10.7809C11.3255 11.6018 11.2008 12.505 11.4439 13.3764C11.6869 14.2478 12.2869 15.0482 13.1679 15.6765C14.0488 16.3047 15.1713 16.7325 16.3932 16.9059C17.6152 17.0792 18.8818 16.9902 20.0328 16.6502C21.1839 16.3102 22.1677 15.7345 22.8599 14.9957C23.5521 14.257 23.9215 13.3885 23.9215 12.5C23.9215 11.3086 23.2578 10.166 22.0765 9.32354C20.8951 8.4811 19.2929 8.00781 17.6222 8.00781ZM17.6222 14.6484C17.0263 14.6484 16.4438 14.5224 15.9484 14.2864C15.4529 14.0503 15.0668 13.7147 14.8388 13.3222C14.6107 12.9296 14.5511 12.4976 14.6673 12.0809C14.7836 11.6641 15.0705 11.2813 15.4918 10.9808C15.9132 10.6804 16.45 10.4757 17.0344 10.3928C17.6188 10.3099 18.2246 10.3525 18.7751 10.5151C19.3256 10.6777 19.7961 10.9531 20.1272 11.3064C20.4582 11.6597 20.6349 12.0751 20.6349 12.5C20.6313 13.069 20.3127 13.614 19.7485 14.0163C19.1843 14.4187 18.4201 14.6459 17.6222 14.6484ZM24.1954 1.95312H11.0489C8.86977 1.95313 6.77987 2.57045 5.23897 3.6693C3.69807 4.76814 2.8324 6.2585 2.8324 7.8125V17.1875C2.8324 18.7415 3.69807 20.2319 5.23897 21.3307C6.77987 22.4296 8.86977 23.0469 11.0489 23.0469H24.1954C26.3746 23.0469 28.4645 22.4296 30.0054 21.3307C31.5463 20.2319 32.4119 18.7415 32.4119 17.1875V7.8125C32.4119 6.2585 31.5463 4.76814 30.0054 3.6693C28.4645 2.57045 26.3746 1.95313 24.1954 1.95312ZM29.1253 17.1875C29.1253 18.1199 28.6059 19.0141 27.6814 19.6734C26.7568 20.3327 25.5029 20.7031 24.1954 20.7031H11.0489C9.74144 20.7031 8.48749 20.3327 7.56295 19.6734C6.63841 19.0141 6.11901 18.1199 6.11901 17.1875V7.8125C6.11901 6.8801 6.63841 5.98589 7.56295 5.32658C8.48749 4.66727 9.74144 4.29688 11.0489 4.29688H24.1954C25.5029 4.29688 26.7568 4.66727 27.6814 5.32658C28.6059 5.98589 29.1253 6.8801 29.1253 7.8125V17.1875ZM26.9342 7.42188C26.9342 7.73091 26.8057 8.033 26.565 8.28995C26.3242 8.54691 25.982 8.74718 25.5817 8.86544C25.1813 8.9837 24.7407 9.01464 24.3157 8.95435C23.8907 8.89406 23.5003 8.74525 23.1938 8.52673C22.8874 8.30821 22.6787 8.0298 22.5942 7.7267C22.5096 7.42361 22.553 7.10944 22.7189 6.82393C22.8847 6.53842 23.1655 6.29439 23.5259 6.1227C23.8862 5.95101 24.3098 5.85938 24.7432 5.85938C25.3243 5.85938 25.8816 6.024 26.2925 6.31702C26.7034 6.61005 26.9342 7.00747 26.9342 7.42188Z" fill="white"/>
</svg>
