<svg width="207" height="116" viewBox="0 0 207 116" fill="none" xmlns="http://www.w3.org/2000/svg">
<g clip-path="url(#clip0_32_62)">
<path d="M0.368958 38.8914V76.4981H21.7326V62.9163H36.5824L42.3487 54.6994H21.7326V47.0653H46.826L52.3001 38.8914H0.368958ZM58.8398 38.8914L58.8054 76.4981H79.9199V38.8914H58.8398ZM94.5032 38.8914V76.4981H115.85V62.9163H130.682L136.5 54.6994H115.85V47.0653H140.96L146.46 38.8914H94.5032ZM160.313 38.8914L135.993 76.4981H156.403L159.033 71.4438H182.828L185.578 76.4981H206.615L182.235 38.8914H160.313ZM170.926 48.5558L179.356 64.211H162.797L170.926 48.5558Z" fill="black"/>
</g>
<defs>
<clipPath id="clip0_32_62">
<rect width="206.246" height="114.655" fill="white" transform="translate(0.368958 0.367432)"/>
</clipPath>
</defs>
</svg>
