<svg width="184" height="95" viewBox="0 0 184 95" fill="none" xmlns="http://www.w3.org/2000/svg">
<path d="M12.564 39.0909C9.132 39.0909 6.504 38.3229 4.68 36.7869C2.88 35.2269 1.98 32.9349 1.98 29.9109V22.2069C1.98 19.1829 2.88 16.9029 4.68 15.3669C6.504 13.8069 9.132 13.0269 12.564 13.0269C15.036 13.0269 17.052 13.4229 18.612 14.2149C20.196 15.0069 21.444 16.1829 22.356 17.7429L18.504 20.3709C17.76 19.1709 16.968 18.3069 16.128 17.7789C15.288 17.2509 14.1 16.9869 12.564 16.9869C10.644 16.9869 9.24 17.4309 8.352 18.3189C7.488 19.1829 7.056 20.4789 7.056 22.2069V29.9109C7.056 31.6389 7.488 32.9469 8.352 33.8349C9.24 34.6989 10.644 35.1309 12.564 35.1309C14.244 35.1309 15.516 34.8549 16.38 34.3029C17.268 33.7269 17.712 32.8989 17.712 31.8189V30.7029C17.712 29.2149 17.028 28.4709 15.66 28.4709H11.556V24.5109H17.1C19.02 24.5109 20.436 24.9549 21.348 25.8429C22.26 26.7309 22.716 28.1109 22.716 29.9829V32.1789C22.716 34.3389 21.804 36.0309 19.98 37.2549C18.156 38.4789 15.684 39.0909 12.564 39.0909ZM40.6823 33.4389C40.6823 34.0869 40.8023 34.6149 41.0423 35.0229C41.3063 35.4309 41.7623 35.8749 42.4102 36.3549L39.2783 39.0909C37.9103 38.3949 36.9743 37.5189 36.4703 36.4629C35.9423 37.2069 35.2223 37.8309 34.3103 38.3349C33.3983 38.8389 32.2703 39.0909 30.9263 39.0909C29.2223 39.0909 27.8663 38.6589 26.8583 37.7949C25.8503 36.9069 25.3463 35.6589 25.3463 34.0509C25.3463 32.6109 25.7183 31.5069 26.4623 30.7389C27.2303 29.9469 28.1063 29.4069 29.0903 29.1189C30.0743 28.8309 31.1663 28.6269 32.3663 28.5069L34.0943 28.3269C34.7903 28.2549 35.2703 28.1349 35.5343 27.9669C35.8223 27.7989 35.9783 27.5229 36.0023 27.1389C35.9543 26.4189 35.7143 25.8069 35.2823 25.3029C34.8743 24.7989 34.0823 24.5469 32.9062 24.5469C32.1383 24.5469 31.4663 24.6909 30.8903 24.9789C30.3143 25.2669 29.7263 25.7349 29.1263 26.3829L25.9223 24.1509C26.6183 23.2389 27.4943 22.5429 28.5503 22.0629C29.6063 21.5589 31.0583 21.3069 32.9062 21.3069C38.0903 21.3069 40.6823 23.4069 40.6823 27.6069V33.4389ZM32.1143 35.7429C33.3623 35.7429 34.3223 35.4429 34.9943 34.8429C35.6663 34.2189 36.0023 33.4629 36.0023 32.5749V31.0629C35.6183 31.2069 34.8863 31.3389 33.8063 31.4589L32.7263 31.5669C31.9103 31.6389 31.2263 31.8309 30.6743 32.1429C30.1223 32.4309 29.8463 32.9829 29.8463 33.7989C29.8463 34.4229 30.0503 34.9029 30.4583 35.2389C30.8663 35.5749 31.4183 35.7429 32.1143 35.7429ZM64.3877 21.3069C66.1397 21.3069 67.4717 21.8109 68.3837 22.8189C69.3197 23.8269 69.7877 25.2669 69.7877 27.1389V38.6589H65.1077V27.5709C65.1077 26.7549 64.9157 26.1069 64.5317 25.6269C64.1717 25.1469 63.6677 24.9069 63.0197 24.9069C61.6037 24.9069 60.5597 25.8069 59.8877 27.6069V38.6589H55.2077V27.5709C55.2077 26.7549 55.0157 26.1069 54.6317 25.6269C54.2717 25.1469 53.7677 24.9069 53.1197 24.9069C51.7037 24.9069 50.6597 25.8069 49.9877 27.6069V38.6589H45.3077V26.9589C45.3077 26.3109 45.1757 25.7829 44.9117 25.3749C44.6717 24.9669 44.2277 24.5229 43.5797 24.0429L46.7117 21.3069C48.1517 22.0029 49.0997 22.9149 49.5557 24.0429C50.6837 22.2189 52.3277 21.3069 54.4877 21.3069C55.6877 21.3069 56.6957 21.5589 57.5117 22.0629C58.3517 22.5429 58.9637 23.2509 59.3477 24.1869C60.4277 22.2669 62.1077 21.3069 64.3877 21.3069ZM81.3968 35.5629C82.2848 35.5629 83.0048 35.4549 83.5568 35.2389C84.1088 34.9989 84.7088 34.5909 85.3568 34.0149L88.1288 36.5349C86.7368 38.2389 84.4928 39.0909 81.3968 39.0909C78.6368 39.0909 76.6448 38.5749 75.4208 37.5429C74.1968 36.4869 73.5848 34.7829 73.5848 32.4309V27.2829C73.5848 25.4349 74.2448 23.9829 75.5648 22.9269C76.9088 21.8469 78.7328 21.3069 81.0368 21.3069C83.4128 21.3069 85.2728 21.8829 86.6168 23.0349C87.9608 24.1629 88.6328 25.8189 88.6328 28.0029C88.6328 29.0589 88.5368 29.8749 88.3448 30.4509C88.1768 31.0269 87.8288 31.4589 87.3008 31.7469C86.7728 32.0109 86.0048 32.1429 84.9968 32.1429H78.2288V32.4669C78.2288 34.5309 79.2848 35.5629 81.3968 35.5629ZM81.0368 24.8349C80.1488 24.8349 79.4528 25.0989 78.9488 25.6269C78.4688 26.1309 78.2288 26.8029 78.2288 27.6429V28.9389H82.3328C82.9568 28.9389 83.3888 28.8429 83.6288 28.6509C83.8688 28.4589 83.9888 28.1229 83.9888 27.6429C83.9888 26.7309 83.7368 26.0349 83.2328 25.5549C82.7288 25.0749 81.9968 24.8349 81.0368 24.8349ZM3.06 60.4589H5.688C7.008 60.4589 8.064 60.6389 8.856 60.9989C9.648 61.3589 10.332 61.9349 10.908 62.7269C11.484 63.4949 12.156 64.6589 12.924 66.2189L15.012 70.4309L17.1 66.2189C17.868 64.6589 18.54 63.4949 19.116 62.7269C19.692 61.9349 20.376 61.3589 21.168 60.9989C21.96 60.6389 23.016 60.4589 24.336 60.4589H26.964V85.6589H22.356V65.7509C22.068 65.7509 21.828 65.8829 21.636 66.1469C21.444 66.4109 21.156 66.8789 20.772 67.5509L15.012 78.2429L9.252 67.5509C8.868 66.8789 8.58 66.4109 8.388 66.1469C8.196 65.8829 7.956 65.7389 7.668 65.7149V85.6589H3.06V60.4589ZM46.7994 80.4389C46.7994 81.0869 46.9194 81.6149 47.1594 82.0229C47.4234 82.4309 47.8794 82.8749 48.5274 83.3549L45.3954 86.0909C44.0274 85.3949 43.0914 84.5189 42.5874 83.4629C42.0594 84.2069 41.3394 84.8309 40.4274 85.3349C39.5154 85.8389 38.3874 86.0909 37.0434 86.0909C35.3394 86.0909 33.9834 85.6589 32.9754 84.7949C31.9674 83.9069 31.4634 82.6589 31.4634 81.0509C31.4634 79.6109 31.8354 78.5069 32.5794 77.7389C33.3474 76.9469 34.2234 76.4069 35.2074 76.1189C36.1914 75.8309 37.2834 75.6269 38.4834 75.5069L40.2114 75.3269C40.9074 75.2549 41.3874 75.1349 41.6514 74.9669C41.9394 74.7989 42.0954 74.5229 42.1194 74.1389C42.0714 73.4189 41.8314 72.8069 41.3994 72.3029C40.9914 71.7989 40.1994 71.5469 39.0234 71.5469C38.2554 71.5469 37.5834 71.6909 37.0074 71.9789C36.4314 72.2669 35.8434 72.7349 35.2434 73.3829L32.0394 71.1509C32.7354 70.2389 33.6114 69.5429 34.6674 69.0629C35.7234 68.5589 37.1754 68.3069 39.0234 68.3069C44.2074 68.3069 46.7994 70.4069 46.7994 74.6069V80.4389ZM38.2314 82.7429C39.4794 82.7429 40.4394 82.4429 41.1114 81.8429C41.7834 81.2189 42.1194 80.4629 42.1194 79.5749V78.0629C41.7354 78.2069 41.0034 78.3389 39.9234 78.4589L38.8434 78.5669C38.0274 78.6389 37.3434 78.8309 36.7914 79.1429C36.2394 79.4309 35.9634 79.9829 35.9634 80.7989C35.9634 81.4229 36.1674 81.9029 36.5754 82.2389C36.9834 82.5749 37.5354 82.7429 38.2314 82.7429ZM60.8929 68.3069C62.7409 68.3069 64.1569 68.8109 65.1409 69.8189C66.1489 70.8269 66.6529 72.2669 66.6529 74.1389V85.6589H61.9729V74.5709C61.9729 73.7549 61.7449 73.1069 61.2889 72.6269C60.8569 72.1469 60.2689 71.9069 59.5249 71.9069C57.9409 71.9069 56.8009 72.8429 56.1049 74.7149V85.6589H51.4249V73.9589C51.4249 73.3109 51.2929 72.7829 51.0289 72.3749C50.7889 71.9669 50.3449 71.5229 49.6969 71.0429L52.8289 68.3069C53.5969 68.6909 54.1969 69.0989 54.6289 69.5309C55.0849 69.9629 55.4329 70.4669 55.6729 71.0429C56.1769 70.2269 56.8489 69.5669 57.6889 69.0629C58.5529 68.5589 59.6209 68.3069 60.8929 68.3069ZM73.557 66.4709C72.813 66.4709 72.177 66.2069 71.649 65.6789C71.121 65.1509 70.857 64.5149 70.857 63.7709C70.857 63.0509 71.121 62.4269 71.649 61.8989C72.177 61.3469 72.813 61.0709 73.557 61.0709C74.277 61.0709 74.901 61.3469 75.429 61.8989C75.981 62.4269 76.257 63.0509 76.257 63.7709C76.257 64.5149 75.981 65.1509 75.429 65.6789C74.901 66.2069 74.277 66.4709 73.557 66.4709ZM74.493 86.0909C73.269 85.4669 72.417 84.7589 71.937 83.9669C71.457 83.1509 71.217 82.0229 71.217 80.5829V68.7389H75.897V80.4389C75.897 81.0869 76.017 81.6149 76.257 82.0229C76.521 82.4309 76.977 82.8749 77.625 83.3549L74.493 86.0909ZM95.3151 80.4389C95.3151 81.0869 95.4351 81.6149 95.6751 82.0229C95.9391 82.4309 96.3951 82.8749 97.0431 83.3549L93.9111 86.0909C92.5431 85.3949 91.6071 84.5189 91.1031 83.4629C90.5751 84.2069 89.8551 84.8309 88.9431 85.3349C88.0311 85.8389 86.9031 86.0909 85.5591 86.0909C83.8551 86.0909 82.4991 85.6589 81.4911 84.7949C80.4831 83.9069 79.9791 82.6589 79.9791 81.0509C79.9791 79.6109 80.3511 78.5069 81.0951 77.7389C81.8631 76.9469 82.7391 76.4069 83.7231 76.1189C84.7071 75.8309 85.7991 75.6269 86.9991 75.5069L88.7271 75.3269C89.4231 75.2549 89.9031 75.1349 90.1671 74.9669C90.4551 74.7989 90.6111 74.5229 90.6351 74.1389C90.5871 73.4189 90.3471 72.8069 89.9151 72.3029C89.5071 71.7989 88.7151 71.5469 87.5391 71.5469C86.7711 71.5469 86.0991 71.6909 85.5231 71.9789C84.9471 72.2669 84.3591 72.7349 83.7591 73.3829L80.5551 71.1509C81.2511 70.2389 82.1271 69.5429 83.1831 69.0629C84.2391 68.5589 85.6911 68.3069 87.5391 68.3069C92.7231 68.3069 95.3151 70.4069 95.3151 74.6069V80.4389ZM86.7471 82.7429C87.9951 82.7429 88.9551 82.4429 89.6271 81.8429C90.2991 81.2189 90.6351 80.4629 90.6351 79.5749V78.0629C90.2511 78.2069 89.5191 78.3389 88.4391 78.4589L87.3591 78.5669C86.5431 78.6389 85.8591 78.8309 85.3071 79.1429C84.7551 79.4309 84.4791 79.9829 84.4791 80.7989C84.4791 81.4229 84.6831 81.9029 85.0911 82.2389C85.4991 82.5749 86.0511 82.7429 86.7471 82.7429Z" fill="white"/>
<path d="M140.184 42.5545C137.025 37.1835 130.698 33.8469 123.672 33.8469C113.484 33.8469 105.195 40.9106 105.195 49.593C105.195 58.2755 113.484 65.3392 123.672 65.3392C130.698 65.3392 137.025 62.0026 140.184 56.6316C140.396 56.2717 140.438 55.8564 140.302 55.471C140.165 55.0856 139.861 54.7594 139.451 54.5594L129.246 49.593L139.449 44.6283C140.301 44.2126 140.624 43.3025 140.184 42.5545V42.5545ZM124.603 48.2263C124.32 48.3637 124.085 48.5626 123.921 48.8026C123.757 49.0427 123.671 49.3154 123.671 49.593C123.671 49.8707 123.757 50.1434 123.921 50.3835C124.085 50.6235 124.32 50.8224 124.603 50.9598L136.009 56.5103C134.671 58.2585 132.842 59.6939 130.687 60.6858C128.532 61.6778 126.121 62.1948 123.672 62.1899C115.522 62.1899 108.89 56.5387 108.89 49.593C108.89 42.6474 115.522 36.9961 123.672 36.9961C126.12 36.9912 128.532 37.5081 130.686 38.4998C132.841 39.4914 134.671 40.9264 136.009 42.6742L124.603 48.2263V48.2263Z" fill="white"/>
<path d="M122.748 44.8693C124.279 44.8693 125.519 43.8119 125.519 42.5074C125.519 41.203 124.279 40.1455 122.748 40.1455C121.217 40.1455 119.976 41.203 119.976 42.5074C119.976 43.8119 121.217 44.8693 122.748 44.8693Z" fill="white"/>
</svg>
