<svg width="34" height="31" viewBox="0 0 34 31" fill="none" xmlns="http://www.w3.org/2000/svg">
<rect width="32.995" height="31" transform="translate(0.75)" fill="#042E54"/>
<path d="M29.191 6.68337C28.9437 6.49292 28.6443 6.36693 28.3245 6.31879C28.0048 6.27065 27.6766 6.30216 27.375 6.40996L6.80822 13.7514C6.44748 13.8763 6.14193 14.1056 5.9386 14.4038C5.73527 14.7021 5.64544 15.0528 5.68295 15.402C5.71642 15.751 5.87349 16.0808 6.1306 16.3419C6.38772 16.603 6.73102 16.7813 7.10904 16.85L12.3343 17.7917V23.7257C12.3341 24.0467 12.4388 24.3605 12.6352 24.6273C12.8316 24.8942 13.1108 25.102 13.4373 25.2243C13.6534 25.3034 13.884 25.3446 14.1169 25.3459C14.351 25.3466 14.583 25.3049 14.7991 25.2232C15.0153 25.1415 15.2114 25.0214 15.3759 24.8699L18.2726 22.2473L22.6511 25.7509C22.9743 26.01 23.3899 26.1539 23.8209 26.1559C24.0105 26.1595 24.1991 26.1321 24.378 26.0749C24.672 25.9904 24.9366 25.8375 25.1457 25.6315C25.3548 25.4255 25.5011 25.1735 25.5701 24.9003L29.7592 8.27317C29.8324 7.98626 29.8182 7.68664 29.7181 7.40653C29.618 7.12641 29.4358 6.87639 29.191 6.68337ZM13.0139 16.2627L7.46556 15.2602L23.0188 9.70096L13.0139 16.2627ZM14.1169 23.7257V18.9259L16.9245 21.1739L14.1169 23.7257ZM23.8321 24.5358L14.6517 17.1943L27.8763 8.5162L23.8321 24.5358Z" fill="white"/>
</svg>
