<svg width="33" height="23" viewBox="0 0 33 23" fill="none" xmlns="http://www.w3.org/2000/svg">
<rect width="31.9639" height="23" transform="translate(0.921814)" fill="#042E54"/>
<path d="M24.6926 13.3546C24.3523 13.2288 22.6574 12.6313 22.3421 12.5505C22.0268 12.4651 21.7959 12.4247 21.568 12.6762C21.337 12.9256 20.6815 13.4803 20.4755 13.6488C20.2757 13.815 20.0728 13.8352 19.7326 13.7117C17.7098 12.984 16.3832 12.4135 15.0503 10.7671C14.6976 10.3291 15.4031 10.3605 16.0617 9.41492C16.1741 9.24871 16.1179 9.1072 16.0305 8.98142C15.9431 8.85564 15.2564 7.63826 14.9692 7.14187C14.6914 6.65896 14.4042 6.72634 14.1951 6.71736C13.9953 6.70837 13.7674 6.70837 13.5364 6.70837C13.3054 6.70837 12.934 6.77126 12.6187 7.01609C12.3034 7.26541 11.4138 7.86511 11.4138 9.0825C11.4138 10.2999 12.6468 11.4791 12.8154 11.6453C12.9902 11.8115 15.2408 14.3092 18.6962 15.385C20.8813 16.0634 21.7365 16.1218 22.8291 16.005C23.4939 15.9331 24.8643 15.4075 25.1483 14.8258C25.4324 14.2463 25.4324 13.7499 25.3481 13.6466C25.2638 13.5365 25.0328 13.4736 24.6926 13.3546Z" fill="white"/>
<path d="M28.4984 7.5763C27.8829 6.48502 27.0006 5.50551 25.8759 4.66419C24.7513 3.8249 23.4387 3.16444 21.9736 2.7072C20.4759 2.23777 18.8855 2 17.2462 2H17.1917C15.5415 2.0061 13.943 2.24996 12.4398 2.72955C10.9883 3.19289 9.68665 3.85132 8.57287 4.69061C7.45909 5.5299 6.58495 6.50534 5.98041 7.59256C5.35408 8.71839 5.03819 9.91534 5.04636 11.1468C5.05453 12.5572 5.50657 13.9573 6.35348 15.2092V18.2981C6.35348 18.8143 6.91446 19.2329 7.60614 19.2329H11.7481C13.4256 19.8649 15.3018 20.2022 17.1917 20.2083H17.2489C18.8801 20.2083 20.4623 19.9726 21.9518 19.5113C23.4087 19.0581 24.7186 18.4078 25.8405 17.5767C26.9652 16.7455 27.8502 15.7741 28.4684 14.691C29.1111 13.5692 29.4378 12.3763 29.446 11.1448C29.4542 9.90721 29.1329 8.70619 28.4984 7.5763ZM24.3836 16.4773C22.4747 17.8876 19.9421 18.6639 17.2462 18.6639H17.1999C15.5578 18.6578 13.9266 18.353 12.4861 17.7799L12.2573 17.6884H8.4231V14.8271L8.30055 14.6564C7.53262 13.5814 7.12414 12.3641 7.11597 11.1387C7.10508 9.11263 8.14261 7.21051 10.0461 5.77782C11.9469 4.34514 14.4876 3.55259 17.2026 3.54446H17.2489C18.6105 3.54446 19.9312 3.74158 21.1757 4.13176C22.3903 4.51177 23.4795 5.05843 24.4163 5.7575C25.3504 6.45454 26.0856 7.26944 26.5949 8.17579C27.1231 9.11466 27.3873 10.1104 27.3818 11.1387C27.3655 13.1628 26.3007 15.0588 24.3836 16.4773Z" fill="white"/>
</svg>
